<svg width="31" height="31" viewBox="0 0 31 31" fill="none" xmlns="http://www.w3.org/2000/svg">
<path id="Vector" d="M29.6524 21.656H25.4962C25.46 21.656 25.4246 21.6651 25.3891 21.6679C25.248 21.0294 24.6842 20.5567 24.0112 20.5567H16.5816C15.8026 20.5567 15.1343 21.1711 15.1343 21.9591V24.0744H6.68895C4.7982 24.0744 3.26009 22.5383 3.26009 20.6257C3.26009 18.7132 4.7982 17.1669 6.68808 17.1669L20.8388 17.1792C24.5272 17.1792 27.5279 14.1345 27.5279 10.4035C27.5279 6.6725 24.5272 3.62767 20.8388 3.62767H16.0037V1.43293C16.0037 0.644956 15.4078 0 14.6289 0H7.19915C6.52616 0 5.96238 0.472697 5.82133 1.11117C5.7859 1.10842 5.75037 1.09929 5.71429 1.09929H1.55789C0.778945 1.09929 0.137902 1.75689 0.137902 2.54487V7.92899C0.137902 8.71697 0.778945 9.34401 1.55789 9.34401H5.71418C5.75037 9.34401 5.78579 9.33488 5.82122 9.33224C5.96227 9.97071 6.52605 10.4433 7.19904 10.4433H14.6288C15.4077 10.4433 16.0036 9.8289 16.0036 9.04093V6.92545H20.8387C22.7294 6.92545 24.2677 8.49326 24.2677 10.4059C24.2677 12.3185 22.7295 13.8804 20.8396 13.8804L6.68884 13.876C3.00059 13.8761 0 16.8932 0 20.6242C0 24.3552 3.00059 27.3723 6.68895 27.3723H15.1343V29.5671C15.1343 30.355 15.8026 31 16.5816 31H24.0112C24.6842 31 25.248 30.5273 25.3891 29.8888C25.4246 29.8916 25.46 29.9007 25.4962 29.9007H29.6524C30.4313 29.9007 31 29.2431 31 28.4551V23.0711C31.0001 22.283 30.4313 21.656 29.6524 21.656ZM4.70203 7.69495H2.09396V6.04601H4.70203V7.69495ZM4.70203 4.39707H2.09396V2.74813H4.70203V4.39707ZM29.0441 28.2518H26.436V26.6028H29.0441V28.2518ZM29.0441 24.9539H26.436V23.3049H29.0441V24.9539Z" fill="#158319"/>
</svg>
