<svg width="33" height="33" viewBox="0 0 33 33" fill="none" xmlns="http://www.w3.org/2000/svg">
<g id="Group 108">
<path id="Vector" d="M20.7243 16.0905C20.7243 14.1202 19.4838 12.4418 17.696 11.8215V15.3242C17.696 16.0905 17.1487 16.7837 16.346 16.8932C15.4338 17.0026 14.6311 16.2729 14.6311 15.3972V11.8215C12.7338 12.4783 11.4568 14.3756 11.6392 16.5283C11.7851 18.2796 12.9892 19.7756 14.6311 20.3594V24.9567H17.696V20.3594C19.4838 19.7391 20.7243 18.0607 20.7243 16.0905Z" fill="#158319"/>
<path id="Vector_2" d="M32.4 19.5932V12.8068H29.4081C29.0797 11.5662 28.6054 10.3622 27.9486 9.30405L30.0649 7.18784L25.2486 2.33513L23.1324 4.45135C22.0378 3.79459 20.8703 3.32027 19.6297 2.99189V0H12.8068V2.99189C11.5662 3.32027 10.3622 3.79459 9.30405 4.45135L7.15135 2.33513L2.33513 7.15135L4.45135 9.26757C3.79459 10.3622 3.32027 11.5297 2.99189 12.7703H0V19.5932H2.99189C3.32027 20.8338 3.79459 22.0378 4.45135 23.0959L2.33513 25.2486L7.15135 30.0649L9.26757 27.9486C10.3622 28.6054 11.5297 29.0797 12.7703 29.4081V32.4H19.5932V29.4081C20.8338 29.0797 22.0378 28.6054 23.0959 27.9486L25.2122 30.0649L30.0649 25.2486L27.9486 23.1324C28.6054 22.0378 29.0797 20.8703 29.4081 19.6297H32.4V19.5932ZM16.2 23.7162C12.0405 23.7162 8.68378 20.3595 8.68378 16.2C8.68378 12.0405 12.0405 8.68378 16.2 8.68378C20.3595 8.68378 23.7162 12.0405 23.7162 16.2C23.7162 20.3595 20.3595 23.7162 16.2 23.7162Z" fill="#158319"/>
</g>
</svg>
