<svg width="51" height="40" viewBox="0 0 51 40" fill="none" xmlns="http://www.w3.org/2000/svg">
<path id="Vector" d="M21.7671 2.85209L19.9165 0C7.11305 8.627 0 19.109 0 27.736C0 36.0778 6.11836 40 11.3103 40C17.8543 40 22.4772 34.4373 22.4772 28.5916C22.4772 23.6724 19.3475 19.4649 15.1502 17.8952C13.9416 17.4662 12.8035 17.1103 12.8035 15.0431C12.8035 12.4055 14.7246 8.48554 21.7671 2.85209ZM50.0053 2.85209L48.1548 0C35.4924 8.627 28.2382 19.109 28.2382 27.736C28.2382 36.0778 34.4977 40 39.6897 40C46.3042 40 51 34.4373 51 28.5916C51 23.6724 47.7997 19.4649 43.459 17.8952C42.2504 17.4662 41.1829 17.1103 41.1829 15.0431C41.1829 12.4055 43.1745 8.48326 50.003 2.84981L50.0053 2.85209Z" fill="#158319"/>
</svg>
