<svg width="31" height="32" viewBox="0 0 31 32" fill="none" xmlns="http://www.w3.org/2000/svg">
<path id="Vector" d="M30.7173 6.3067L24.2916 12.8461C24.2916 12.8461 22.3713 12.8461 20.451 10.8691C18.5306 8.89205 18.5306 6.91502 18.5306 6.91502L24.9563 0.299574C21.3373 -0.612901 16.9796 0.603732 14.3207 3.34116C10.3323 7.44729 13.8775 12.694 12.8435 13.7586C7.23028 19.7657 1.46932 24.3281 1.3216 24.5562C-0.37714 26.3051 -0.450999 29.1186 1.17389 30.7914C2.79877 32.4643 5.53154 32.3883 7.23028 30.6394C7.45186 30.4112 12.1788 24.252 17.7182 18.5491C18.7522 17.4845 23.6269 21.3625 27.7629 17.1804C30.348 14.4429 31.6036 10.0326 30.7173 6.3067ZM4.64524 29.1946C3.61122 29.1946 2.79877 28.3582 2.79877 27.2936C2.79877 26.153 3.61122 25.3166 4.64524 25.3166C5.67926 25.3166 6.4917 26.153 6.4917 27.2176C6.4917 28.2821 5.67926 29.1946 4.64524 29.1946Z" fill="#158319"/>
</svg>
