<svg width="63" height="56" viewBox="0 0 63 56" fill="none" xmlns="http://www.w3.org/2000/svg">
<g id="Mask group">
<mask id="mask0_1_502" style="mask-type:alpha" maskUnits="userSpaceOnUse" x="0" y="0" width="63" height="56">
<path id="Vector" d="M27.125 0H22.75C19.8516 0 17.5 2.35156 17.5 5.25V17.5C17.5 21.3609 20.6391 24.5 24.5 24.5H38.5C42.3609 24.5 45.5 21.3609 45.5 17.5V5.25C45.5 2.35156 43.1484 0 40.25 0H35.875V8.75C35.875 9.7125 35.0875 10.5 34.125 10.5H28.875C27.9125 10.5 27.125 9.7125 27.125 8.75V0ZM7 28C3.13906 28 0 31.1391 0 35V49C0 52.8609 3.13906 56 7 56H24.5C28.3609 56 31.5 52.8609 31.5 49V35C31.5 31.1391 28.3609 28 24.5 28H20.125V36.75C20.125 37.7125 19.3375 38.5 18.375 38.5H13.125C12.1625 38.5 11.375 37.7125 11.375 36.75V28H7ZM38.5 56H56C59.8609 56 63 52.8609 63 49V35C63 31.1391 59.8609 28 56 28H51.625V36.75C51.625 37.7125 50.8375 38.5 49.875 38.5H44.625C43.6625 38.5 42.875 37.7125 42.875 36.75V28H38.5C36.8594 28 35.35 28.5578 34.1578 29.5094C34.6937 30.6469 35 31.9156 35 33.25V50.75C35 52.0844 34.6937 53.3531 34.1578 54.4906C35.35 55.4422 36.8594 56 38.5 56Z" fill="black"/>
</mask>
<g mask="url(#mask0_1_502)">
<rect id="Rectangle 61" width="63" height="56" fill="#042E3A"/>
</g>
</g>
</svg>
